<svg width="360" height="100" viewBox="0 0 360 100" fill="none" xmlns="http://www.w3.org/2000/svg">
<path d="M0 100H360C310.5 42 245 62.5 180 0C118 63 54 46 0 100Z" fill="#F3EFE0"/>
<path d="M0 100C54 46 118 63 180 0C144.911 22.9307 116.172 31.2635 87.0406 39.7101C60.1332 47.5119 34.5 57 0 75V100Z" fill="#90A955"/>
<path d="M0 50V75C34.5 57 60.1332 47.5119 87.0406 39.7101C116.172 31.2635 144.911 22.9307 180 0C128.5 22 95.5 28.5 75 33.5C54.5 38.5 41.5 43.0981 0 50Z" fill="#90A955"/>
<path d="M0 25V50C41.5 43.0981 54.5 38.5 75 33.5C95.5 28.5 128.5 22 180 0C139.258 2.40024 112.581 8.2976 87.8632 13.7619C61.3147 19.6307 37.0264 25 0 25Z" fill="#4F772D"/>
<path d="M0 12.5V25C37.0264 25 61.3147 19.6307 87.8632 13.7619C112.581 8.2976 139.258 2.40024 180 0C134.316 0 107.901 3.36884 82.4975 6.60872C58.9674 9.60968 36.3048 12.5 0 12.5Z" fill="#31572C"/>
<path d="M180 0H0V12.5C36.3048 12.5 58.9674 9.60968 82.4975 6.60872C107.901 3.36884 134.316 0 180 0Z" fill="#132A13"/>
<path d="M180 0C245 62.5 310.5 42 360 100V75C327.258 57.9598 303.615 50.5177 280.043 43.0981C251.78 34.2018 223.62 25.3378 180 0Z" fill="#90A955"/>
<path d="M360 50C286 46.5 180 0 180 0C223.62 25.3378 251.78 34.2018 280.043 43.0981C303.615 50.5177 327.258 57.9598 360 75V50Z" fill="#90A955"/>
<path d="M180 0C180 0 286 46.5 360 50V25C322.685 25 287.523 22.5795 259.5 16.5C259.5 16.5 233 12.5 180 0Z" fill="#4F772D"/>
<path d="M360 25V12.5C325.847 12.5 302.76 9.64798 278.642 6.66855C252.267 3.41046 224.66 0 180 0C233 12.5 259.5 16.5 259.5 16.5C287.523 22.5795 322.685 25 360 25Z" fill="#31572C"/>
<path d="M360 0H180C224.66 0 252.267 3.41046 278.642 6.66855C302.76 9.64798 325.847 12.5 360 12.5V0Z" fill="#132A13"/>
</svg>
