<svg width="71" height="116" viewBox="0 0 71 116" fill="none" xmlns="http://www.w3.org/2000/svg">
<path d="M70.2176 82.4246C70.2176 97.4106 61.2054 110.244 48.415 115.597H21.8026C9.01215 110.244 0 97.4106 0 82.4246C0 78.8408 0.515819 75.3812 1.47456 72.1161C2.19834 69.6531 3.17598 67.3035 4.37508 65.0944C6.18184 61.7644 8.49092 58.7586 11.2024 56.1821H59.0152C61.7267 58.7586 64.0358 61.7644 65.8425 65.0944C67.0416 67.3035 68.0192 69.6531 68.743 72.1161C69.7018 75.3812 70.2176 78.8408 70.2176 82.4246Z" fill="#ED976B"/>
<path d="M68.7429 72.1161H1.47449C2.19827 69.6531 3.17591 67.3035 4.37501 65.0944H65.8424C67.0415 67.3035 68.0191 69.6531 68.7429 72.1161Z" fill="white"/>
<path opacity="0.1" d="M70.2174 82.4246C70.2174 97.4106 61.2053 110.244 48.4149 115.597H35.1086V56.1821H59.015C61.7265 58.7586 64.0356 61.7644 65.8424 65.0944C67.0415 67.3035 68.0191 69.6531 68.7429 72.1161C69.7016 75.3812 70.2174 78.8408 70.2174 82.4246Z" fill="black"/>
<path d="M45.2335 112H24.7665C19.9237 112 16 108.054 16 103.206V90.0952C16 87.6888 17.4847 84.6632 19.3935 83.1769L28.92 75.7455C31.7833 73.5161 36.3609 73.41 39.3302 75.4978L50.253 83.1592C52.3563 84.6278 54 87.7773 54 90.3429V103.224C54 108.054 50.0763 112 45.2335 112ZM30.546 77.8334L21.0195 85.2648C19.7647 86.2556 18.6512 88.5027 18.6512 90.0952V103.206C18.6512 106.586 21.3907 109.346 24.7665 109.346H45.2335C48.6093 109.346 51.3488 106.603 51.3488 103.224V90.3429C51.3488 88.6443 50.1293 86.291 48.733 85.3355L37.8102 77.6742C35.7953 76.2587 32.4726 76.3294 30.546 77.8334Z" fill="white"/>
<path d="M35.0004 104.922C34.2757 104.922 33.6748 104.321 33.6748 103.595V98.2874C33.6748 97.5619 34.2757 96.9603 35.0004 96.9603C35.725 96.9603 36.326 97.5619 36.326 98.2874V103.595C36.326 104.321 35.725 104.922 35.0004 104.922Z" fill="white"/>
</svg>
