<svg width="71" height="116" viewBox="0 0 71 116" fill="none" xmlns="http://www.w3.org/2000/svg">
<path d="M47.2617 29.7155C47.2617 41.2879 42.6274 51.7692 35.1168 59.4229L35.1087 59.431C27.5927 51.7773 22.9556 41.2906 22.9556 29.7155C22.9556 18.1404 27.5927 7.65371 35.1087 0C42.6246 7.65371 47.2617 18.1404 47.2617 29.7155Z" fill="#87B272"/>
<path opacity="0.1" d="M47.2617 29.7155C47.2617 41.2879 42.6274 51.7692 35.1168 59.4229H35.1087V0C42.6247 7.65371 47.2617 18.1404 47.2617 29.7155Z" fill="#526B45"/>
<path d="M34.6794 43.7504C38.5468 54.6585 37.6826 66.085 33.1617 75.8074L33.1562 75.8182C23.5148 71.1164 15.6396 62.7821 11.7696 51.8741C7.90221 40.9634 8.76643 29.5314 13.2928 19.8063C22.9342 24.5081 30.8094 32.8424 34.6794 43.7504Z" fill="#87B272"/>
<path opacity="0.1" d="M34.6793 43.7482C38.5467 54.6562 37.6825 66.0828 33.1615 75.8052H33.1534L13.2927 19.8013C22.9341 24.5032 30.8093 32.8375 34.6793 43.7455V43.7482Z" fill="#526B45"/>
<path d="M58.9934 50.9887C55.9714 62.1587 48.7633 71.0655 39.5135 76.4912L39.5027 76.4966C34.2444 67.1469 32.5079 55.8148 35.53 44.6421C38.552 33.4695 45.7655 24.5599 55.018 19.1343C60.2762 28.484 62.0128 39.816 58.9907 50.9887H58.9934Z" fill="#87B272"/>
<path opacity="0.1" d="M58.9935 50.9887C55.9714 62.1587 48.7634 71.0655 39.5135 76.4912H39.5054L55.0181 19.1343C60.2763 28.484 62.0129 39.816 58.9908 50.9887H58.9935Z" fill="#526B45"/>
<path d="M70.2176 82.4246C70.2176 97.4106 61.2054 110.244 48.415 115.597H21.8026C9.01215 110.244 0 97.4106 0 82.4246C0 78.8408 0.515819 75.3812 1.47456 72.1161C2.19834 69.6531 3.17598 67.3035 4.37508 65.0944C6.18184 61.7644 8.49092 58.7586 11.2024 56.1821H59.0152C61.7267 58.7586 64.0358 61.7644 65.8425 65.0944C67.0416 67.3035 68.0192 69.6531 68.743 72.1161C69.7018 75.3812 70.2176 78.8408 70.2176 82.4246Z" fill="#ED976B"/>
<path d="M68.7429 72.1161H1.47449C2.19827 69.6531 3.17591 67.3035 4.37501 65.0944H65.8424C67.0415 67.3035 68.0191 69.6531 68.7429 72.1161Z" fill="white"/>
<path opacity="0.1" d="M70.2174 82.4246C70.2174 97.4106 61.2053 110.244 48.4149 115.597H35.1086V56.1821H59.015C61.7265 58.7586 64.0356 61.7644 65.8424 65.0944C67.0415 67.3035 68.0191 69.6531 68.7429 72.1161C69.7016 75.3812 70.2174 78.8408 70.2174 82.4246Z" fill="black"/>
<path d="M39.975 112H30.1173C21.0993 112 17.2657 108.271 17.2657 99.5572V91.6214C17.2657 90.8968 17.8864 90.2958 18.6349 90.2958C19.3833 90.2958 20.004 90.8968 20.004 91.6214V99.5572C20.004 106.786 22.651 109.349 30.1173 109.349H39.9567C47.423 109.349 50.07 106.786 50.07 99.5572V91.6214C50.07 90.8968 50.6907 90.2958 51.4391 90.2958C52.1876 90.2958 52.8083 90.8968 52.8083 91.6214V99.5572C52.8265 108.271 48.9747 112 39.975 112Z" fill="white"/>
<path d="M35.0446 94.3256C33.0366 94.3256 31.2111 93.5656 29.915 92.1693C28.6189 90.773 28.0165 88.9526 28.2173 87.0084L29.4404 75.2019C29.5134 74.5302 30.0976 74 30.8095 74H39.3346C40.0465 74 40.6307 74.5126 40.7037 75.2019L41.9268 87.0084C42.1276 88.9526 41.5252 90.773 40.2291 92.1693C38.8782 93.5656 37.0527 94.3256 35.0446 94.3256ZM32.0326 76.6512L30.9373 87.2735C30.8095 88.4577 31.1746 89.5712 31.9413 90.3842C33.493 92.0456 36.5963 92.0456 38.148 90.3842C38.9147 89.5535 39.2798 88.44 39.152 87.2735L38.0567 76.6512H32.0326Z" fill="white"/>
<path d="M46.5654 94.3256C42.8597 94.3256 39.5555 91.427 39.1722 87.8567L37.8943 75.467C37.8578 75.0958 37.9856 74.7247 38.2412 74.4419C38.4967 74.1591 38.8618 74 39.2634 74H44.8312C50.1982 74 52.6991 76.174 53.4476 81.5116L53.9587 86.4251C54.1778 88.5107 53.5206 90.4902 52.1149 91.9926C50.7093 93.4949 48.7378 94.3256 46.5654 94.3256ZM40.7786 76.6512L41.9104 87.5916C42.1477 89.8009 44.2653 91.6744 46.5654 91.6744C47.9528 91.6744 49.1941 91.1619 50.0886 90.2251C50.9649 89.2884 51.3665 88.0335 51.2387 86.6902L50.7276 81.8298C50.1617 77.8353 48.8291 76.6512 44.8312 76.6512H40.7786Z" fill="white"/>
<path d="M23.4346 94.3256C21.2623 94.3256 19.2907 93.4949 17.8851 91.9926C16.4794 90.4902 15.8223 88.5107 16.0413 86.4251L16.5342 81.5647C17.3009 76.174 19.8019 74 25.1688 74H30.7366C31.1199 74 31.485 74.1591 31.7588 74.4419C32.0326 74.7247 32.1421 75.0958 32.1056 75.467L30.8279 87.8567C30.4445 91.427 27.1404 94.3256 23.4346 94.3256ZM25.1688 76.6512C21.171 76.6512 19.8384 77.8177 19.2542 81.8651L18.7613 86.6902C18.6153 88.0335 19.0351 89.2884 19.9114 90.2251C20.7876 91.1619 22.029 91.6744 23.4346 91.6744C25.7347 91.6744 27.8706 89.8009 28.0896 87.5916L29.2214 76.6512H25.1688Z" fill="white"/>
<path d="M39.6103 112H30.4828C29.7343 112 29.1136 111.399 29.1136 110.674V106.256C29.1136 102.544 31.213 100.512 35.0465 100.512C38.8801 100.512 40.9794 102.544 40.9794 106.256V110.674C40.9794 111.399 40.3587 112 39.6103 112ZM31.8519 109.349H38.2411V106.256C38.2411 104.029 37.3466 103.163 35.0465 103.163C32.7464 103.163 31.8519 104.029 31.8519 106.256V109.349Z" fill="white"/>
</svg>
