<svg width="71" height="116" viewBox="0 0 71 116" fill="none" xmlns="http://www.w3.org/2000/svg">
<path d="M70.2176 82.4246C70.2176 97.4106 61.2054 110.244 48.415 115.597H21.8026C9.01215 110.244 0 97.4106 0 82.4246C0 78.8408 0.515819 75.3812 1.47456 72.1161C2.19834 69.6531 3.17598 67.3035 4.37508 65.0944C6.18184 61.7644 8.49092 58.7586 11.2024 56.1821H59.0152C61.7267 58.7586 64.0358 61.7644 65.8425 65.0944C67.0416 67.3035 68.0192 69.6531 68.743 72.1161C69.7018 75.3812 70.2176 78.8408 70.2176 82.4246Z" fill="#ED976B"/>
<path d="M68.7429 72.1161H1.47449C2.19827 69.6531 3.17591 67.3035 4.37501 65.0944H65.8424C67.0415 67.3035 68.0191 69.6531 68.7429 72.1161Z" fill="white"/>
<path opacity="0.1" d="M70.2174 82.4246C70.2174 97.4106 61.2053 110.244 48.4149 115.597H35.1086V56.1821H59.015C61.7265 58.7586 64.0356 61.7644 65.8424 65.0944C67.0415 67.3035 68.0191 69.6531 68.7429 72.1161C69.7016 75.3812 70.2174 78.8408 70.2174 82.4246Z" fill="black"/>
<path d="M41.4753 90.9002H26.7374C25.2177 90.9002 24.0514 90.2994 23.5213 89.2746C22.9911 88.232 23.2031 86.9419 24.0867 85.7226L31.4556 75.4027C32.7632 73.5295 35.4669 73.5295 36.7923 75.4203L44.1612 85.7226C45.0447 86.9419 45.2568 88.232 44.7266 89.2746C44.1612 90.2994 42.995 90.9002 41.4753 90.9002ZM34.1062 76.5689C33.9472 76.5689 33.7705 76.7103 33.6114 76.9224L26.2426 87.26C25.8892 87.7372 25.8715 88.0199 25.8892 88.0729C25.9069 88.1083 26.1542 88.2496 26.7551 88.2496H41.4928C42.076 88.2496 42.3235 88.0906 42.3589 88.0552C42.3589 88.0199 42.341 87.7372 42.0053 87.26L34.6364 76.9401C34.442 76.6927 34.2653 76.5689 34.1062 76.5689Z" fill="white"/>
<path d="M43.9836 104.932H24.2448C21.7178 104.932 20.7105 103.712 20.3394 102.988C19.9683 102.263 19.5796 100.744 21.0639 98.6938L28.1147 88.7978C28.3621 88.4444 28.7686 88.25 29.1927 88.25H39.0356C39.4597 88.25 39.8662 88.4621 40.1136 88.7978L47.1644 98.7114C48.6488 100.744 48.2423 102.263 47.8712 102.988C47.5001 103.712 46.5106 104.932 43.9836 104.932ZM29.8642 90.9008L23.2021 100.249C22.6367 101.026 22.5837 101.556 22.6897 101.786C22.8134 102.016 23.2729 102.281 24.2271 102.281H43.9659C44.9202 102.281 45.3973 102.016 45.5033 101.786C45.627 101.556 45.5563 101.026 44.9908 100.249L38.3288 90.8831H29.8642V90.9008Z" fill="white"/>
<path d="M34.1059 112C33.3814 112 32.7806 111.399 32.7806 110.675V103.606C32.7806 102.882 33.3814 102.281 34.1059 102.281C34.8304 102.281 35.4313 102.882 35.4313 103.606V110.675C35.4313 111.399 34.8304 112 34.1059 112Z" fill="white"/>
</svg>
