<svg width="71" height="116" viewBox="0 0 71 116" fill="none" xmlns="http://www.w3.org/2000/svg">
<path d="M70.2176 82.4246C70.2176 97.4106 61.2054 110.244 48.415 115.597H21.8026C9.01215 110.244 0 97.4106 0 82.4246C0 78.8408 0.515819 75.3812 1.47456 72.1161C2.19834 69.6531 3.17598 67.3035 4.37508 65.0944C6.18184 61.7644 8.49092 58.7586 11.2024 56.1821H59.0152C61.7267 58.7586 64.0358 61.7644 65.8425 65.0944C67.0416 67.3035 68.0192 69.6531 68.743 72.1161C69.7018 75.3812 70.2176 78.8408 70.2176 82.4246Z" fill="#ED976B"/>
<path d="M68.7429 72.1161H1.47449C2.19827 69.6531 3.17591 67.3035 4.37501 65.0944H65.8424C67.0415 67.3035 68.0191 69.6531 68.7429 72.1161Z" fill="white"/>
<path opacity="0.1" d="M70.2174 82.4246C70.2174 97.4106 61.2053 110.244 48.4149 115.597H35.1086V56.1821H59.015C61.7265 58.7586 64.0356 61.7644 65.8424 65.0944C67.0415 67.3035 68.0191 69.6531 68.7429 72.1161C69.7016 75.3812 70.2174 78.8408 70.2174 82.4246Z" fill="black"/>
<path d="M35.2129 95.7042C35.1775 95.7042 35.1245 95.7042 35.0892 95.7042C35.0361 95.7042 34.9654 95.7042 34.9124 95.7042C30.9003 95.5805 27.8956 92.4521 27.8956 88.599C27.8956 84.6753 31.0947 81.4763 35.0185 81.4763C38.9422 81.4763 42.1413 84.6753 42.1413 88.599C42.1236 92.4698 39.1013 95.5805 35.2659 95.7042C35.2306 95.7042 35.2306 95.7042 35.2129 95.7042ZM35.0008 84.1097C32.5264 84.1097 30.5291 86.1246 30.5291 88.5814C30.5291 91.0028 32.4203 92.9647 34.8241 93.053C34.8771 93.0354 35.0538 93.0354 35.2306 93.053C37.5989 92.9293 39.4548 90.9851 39.4724 88.5814C39.4724 86.1246 37.4752 84.1097 35.0008 84.1097Z" fill="white"/>
<path d="M35.0015 112C30.2471 112 25.7048 110.233 22.1875 107.016C21.8694 106.733 21.728 106.309 21.7634 105.902C21.9931 103.799 23.301 101.837 25.475 100.388C30.742 96.8885 39.2787 96.8885 44.528 100.388C46.702 101.855 48.0099 103.799 48.2396 105.902C48.2926 106.327 48.1336 106.733 47.8154 107.016C44.2982 110.233 39.7559 112 35.0015 112ZM24.5382 105.549C27.4722 108.006 31.1662 109.349 35.0015 109.349C38.8368 109.349 42.5308 108.006 45.4647 105.549C45.1466 104.471 44.2982 103.428 43.0433 102.58C38.6954 99.6811 31.3252 99.6811 26.942 102.58C25.6871 103.428 24.8564 104.471 24.5382 105.549Z" fill="white"/>
<path d="M35 112C24.5191 112 16 103.481 16 93C16 82.5191 24.5191 74 35 74C45.4809 74 54 82.5191 54 93C54 103.481 45.4809 112 35 112ZM35 76.6512C25.986 76.6512 18.6512 83.986 18.6512 93C18.6512 102.014 25.986 109.349 35 109.349C44.014 109.349 51.3488 102.014 51.3488 93C51.3488 83.986 44.014 76.6512 35 76.6512Z" fill="white"/>
</svg>
